<?xml version="1.0" encoding="UTF-8" standalone="no"?>
<!DOCTYPE svg PUBLIC "-//W3C//DTD SVG 1.1//EN"
 "http://www.w3.org/Graphics/SVG/1.1/DTD/svg11.dtd">
<!-- Generated by graphviz version 2.47.0 (20210316.0004)
 -->
<!-- Title: dependencies Pages: 1 -->
<svg width="504pt" height="287pt"
 viewBox="0.00 0.00 504.00 287.00" xmlns="http://www.w3.org/2000/svg" xmlns:xlink="http://www.w3.org/1999/xlink">
<g id="graph0" class="graph" transform="scale(1 1) rotate(0) translate(4 283)">
<title>dependencies</title>
<polygon fill="white" stroke="transparent" points="-4,4 -4,-283 500,-283 500,4 -4,4"/>
<text text-anchor="start" x="227.01" y="-42.4" font-family="Times-12" font-weight="bold" font-size="14.00">Legend</text>
<polygon fill="#ffffb3" stroke="transparent" points="14,-10 14,-30 34,-30 34,-10 14,-10"/>
<text text-anchor="start" x="37.63" y="-15.4" font-family="Times-12" font-size="14.00"> &#160;Declarations</text>
<polygon fill="#8dd3c7" stroke="transparent" points="127,-10 127,-30 147,-30 147,-10 127,-10"/>
<text text-anchor="start" x="150.73" y="-15.4" font-family="Times-12" font-size="14.00"> &#160;Module</text>
<polygon fill="#80b1d3" stroke="transparent" points="213,-10 213,-30 233,-30 233,-10 213,-10"/>
<text text-anchor="start" x="236.78" y="-15.4" font-family="Times-12" font-size="14.00"> &#160;Bootstrap</text>
<polygon fill="#fdb462" stroke="transparent" points="310,-10 310,-30 330,-30 330,-10 310,-10"/>
<text text-anchor="start" x="333.67" y="-15.4" font-family="Times-12" font-size="14.00"> &#160;Providers</text>
<polygon fill="#fb8072" stroke="transparent" points="406,-10 406,-30 426,-30 426,-10 406,-10"/>
<text text-anchor="start" x="429.73" y="-15.4" font-family="Times-12" font-size="14.00"> &#160;Exports</text>
<g id="clust1" class="cluster">
<title>cluster_AppModule</title>
<polygon fill="none" stroke="black" stroke-dasharray="1,5" points="31.5,-146 31.5,-271 419.5,-271 419.5,-146 31.5,-146"/>
</g>
<g id="clust3" class="cluster">
<title>cluster_AppModule_imports</title>
<polygon fill="none" stroke="black" points="177.5,-154 177.5,-206 411.5,-206 411.5,-154 177.5,-154"/>
</g>
<g id="clust6" class="cluster">
<title>cluster_AppModule_providers</title>
<polygon fill="none" stroke="black" points="39.5,-154 39.5,-206 169.5,-206 169.5,-154 39.5,-154"/>
</g>
<g id="clust7" class="cluster">
<title>cluster_ProductsModule</title>
<polygon fill="none" stroke="black" stroke-dasharray="1,5" points="120.5,-70 120.5,-138 300.5,-138 300.5,-70 120.5,-70"/>
</g>
<g id="clust12" class="cluster">
<title>cluster_ProductsModule_providers</title>
<polygon fill="none" stroke="black" points="128.5,-78 128.5,-130 292.5,-130 292.5,-78 128.5,-78"/>
</g>
<g id="clust13" class="cluster">
<title>cluster_UsersModule</title>
<polygon fill="none" stroke="black" stroke-dasharray="1,5" points="308.5,-70 308.5,-138 464.5,-138 464.5,-70 308.5,-70"/>
</g>
<g id="clust18" class="cluster">
<title>cluster_UsersModule_providers</title>
<polygon fill="none" stroke="black" points="316.5,-78 316.5,-130 456.5,-130 456.5,-78 316.5,-78"/>
</g>
<!-- ProductsModule -->
<g id="node1" class="node">
<title>ProductsModule</title>
<polygon fill="#8dd3c7" stroke="black" points="293.54,-198 290.54,-202 269.54,-202 266.54,-198 185.46,-198 185.46,-162 293.54,-162 293.54,-198"/>
<text text-anchor="middle" x="239.5" y="-175.8" font-family="Times,serif" font-size="14.00">ProductsModule</text>
</g>
<!-- AppModule -->
<g id="node3" class="node">
<title>AppModule</title>
<polygon fill="#8dd3c7" stroke="black" points="281.16,-263 278.16,-267 257.16,-267 254.16,-263 197.84,-263 197.84,-227 281.16,-227 281.16,-263"/>
<text text-anchor="middle" x="239.5" y="-240.8" font-family="Times,serif" font-size="14.00">AppModule</text>
</g>
<!-- ProductsModule&#45;&gt;AppModule -->
<g id="edge1" class="edge">
<title>ProductsModule&#45;&gt;AppModule</title>
<path fill="none" stroke="black" d="M239.5,-198.11C239.5,-198.11 239.5,-216.99 239.5,-216.99"/>
<polygon fill="black" stroke="black" points="236,-216.99 239.5,-226.99 243,-216.99 236,-216.99"/>
</g>
<!-- UsersModule -->
<g id="node2" class="node">
<title>UsersModule</title>
<polygon fill="#8dd3c7" stroke="black" points="403.42,-198 400.42,-202 379.42,-202 376.42,-198 311.58,-198 311.58,-162 403.42,-162 403.42,-198"/>
<text text-anchor="middle" x="357.5" y="-175.8" font-family="Times,serif" font-size="14.00">UsersModule</text>
</g>
<!-- UsersModule&#45;&gt;AppModule -->
<g id="edge2" class="edge">
<title>UsersModule&#45;&gt;AppModule</title>
<path fill="none" stroke="black" d="M357.5,-198.11C357.5,-217.34 357.5,-245 357.5,-245 357.5,-245 291.43,-245 291.43,-245"/>
<polygon fill="black" stroke="black" points="291.43,-241.5 281.43,-245 291.43,-248.5 291.43,-241.5"/>
</g>
<!-- AppService -->
<g id="node4" class="node">
<title>AppService</title>
<ellipse fill="#fdb462" stroke="black" cx="104.5" cy="-180" rx="56.74" ry="18"/>
<text text-anchor="middle" x="104.5" y="-175.8" font-family="Times,serif" font-size="14.00">AppService</text>
</g>
<!-- AppService&#45;&gt;AppModule -->
<g id="edge3" class="edge">
<title>AppService&#45;&gt;AppModule</title>
<path fill="none" stroke="black" d="M104.5,-198.11C104.5,-217.34 104.5,-245 104.5,-245 104.5,-245 187.53,-245 187.53,-245"/>
<polygon fill="black" stroke="black" points="187.53,-248.5 197.53,-245 187.53,-241.5 187.53,-248.5"/>
</g>
<!-- ProductsService -->
<g id="node5" class="node">
<title>ProductsService</title>
<ellipse fill="#fdb462" stroke="black" cx="210.5" cy="-104" rx="73.57" ry="18"/>
<text text-anchor="middle" x="210.5" y="-99.8" font-family="Times,serif" font-size="14.00">ProductsService</text>
</g>
<!-- ProductsService&#45;&gt;ProductsModule -->
<g id="edge4" class="edge">
<title>ProductsService&#45;&gt;ProductsModule</title>
<path fill="none" stroke="black" d="M234.76,-121.25C234.76,-121.25 234.76,-151.76 234.76,-151.76"/>
<polygon fill="black" stroke="black" points="231.26,-151.76 234.76,-161.76 238.26,-151.76 231.26,-151.76"/>
</g>
<!-- UsersService -->
<g id="node6" class="node">
<title>UsersService</title>
<ellipse fill="#fdb462" stroke="black" cx="386.5" cy="-104" rx="61.95" ry="18"/>
<text text-anchor="middle" x="386.5" y="-99.8" font-family="Times,serif" font-size="14.00">UsersService</text>
</g>
<!-- UsersService&#45;&gt;UsersModule -->
<g id="edge5" class="edge">
<title>UsersService&#45;&gt;UsersModule</title>
<path fill="none" stroke="black" d="M363.87,-120.87C363.87,-120.87 363.87,-151.85 363.87,-151.85"/>
<polygon fill="black" stroke="black" points="360.37,-151.85 363.87,-161.85 367.37,-151.85 360.37,-151.85"/>
</g>
</g>
</svg>
